<?xml version="1.0" standalone="no"?>
<!DOCTYPE svg PUBLIC "-//W3C//DTD SVG 20010904//EN"
 "http://www.w3.org/TR/2001/REC-SVG-20010904/DTD/svg10.dtd">
<svg version="1.0" xmlns="http://www.w3.org/2000/svg"
 width="160.000000pt" height="160.000000pt" viewBox="0 0 160.000000 160.000000"
 preserveAspectRatio="xMidYMid meet">
<metadata>
Created by potrace 1.14, written by Peter Selinger 2001-2017
</metadata>
<g transform="translate(0.000000,160.000000) scale(0.100000,-0.100000)"
fill="#000000" stroke="none">
<path d="M710 1549 c-246 -28 -467 -183 -585 -411 -81 -154 -101 -373 -51
-541 51 -171 135 -294 272 -398 80 -60 137 -90 229 -119 360 -112 745 57 905
396 22 45 42 93 44 105 3 13 10 44 17 69 6 25 11 95 11 155 0 171 -47 311
-150 448 -166 219 -418 327 -692 296z"/>
</g>
</svg>
